<svg xmlns="http://www.w3.org/2000/svg" viewBox="0 0 100 100">
  <path fill="#50a5dc" d="M89.75 4.58H59.9a5.63 5.63 0 0 0-5.66 5.58v34c0 .89.72 1.6 1.6 1.6h33.92a5.66 5.66 0 0 0 5.67-5.64v-29.9a5.66 5.66 0 0 0-5.67-5.64m-79.5 0a5.66 5.66 0 0 0-5.67 5.65v29.9a5.66 5.66 0 0 0 5.67 5.64h33.92c.88 0 1.6-.72 1.6-1.6V10.16a5.63 5.63 0 0 0-5.66-5.58zm0 49.65a5.66 5.66 0 0 0-5.67 5.65v29.9a5.66 5.66 0 0 0 5.67 5.64H40.1c3.12 0 5.64-2.5 5.66-5.58v-34c0-.9-.72-1.6-1.6-1.6zm79.5 0H55.83c-.88 0-1.6.72-1.6 1.6v34.01a5.63 5.63 0 0 0 5.66 5.58h29.86a5.66 5.66 0 0 0 5.67-5.65v-29.9a5.66 5.66 0 0 0-5.67-5.64"/>
</svg>
