<svg xmlns="http://www.w3.org/2000/svg" viewBox="0 0 58.19 58.19">
  <path fill="#2d4a60" d="M29.1 39.27h9.44c1.7 0 3.35.6 4.64 1.71l9.13 7.83c.6.53 1.5.62 2.18.19 9.5-6.01-2.02-29.73-4.3-34.04-.25-.46-.65-2.93-1.13-3.11l-7.68-2.8a2.3 2.3 0 0 0-2.01.25s-2.17 1.38-2.65 1.38H21.74c-.48 0-2.92-1.38-2.92-1.38-.6-.4-1.34-.49-2.01-.24l-7.68 2.79c-.49.18-.88 2.65-1.13 3.11C5.72 19.26-5.8 43 3.7 49c.68.43 1.57.34 2.18-.18l9.13-7.83a7 7 0 0 1 4.64-1.71z"/>
  <circle cx="36.79" cy="30.27" r="4" fill="#afb6bb"/>
  <circle cx="13.79" cy="20.27" r="4" fill="#afb6bb"/>
  <circle cx="43.79" cy="16.27" r="2" fill="#ebba16"/>
  <circle cx="39.79" cy="20.27" r="2" fill="#7383bf"/>
  <circle cx="47.79" cy="20.27" r="2" fill="#d75a4a"/>
  <circle cx="43.79" cy="24.27" r="2" fill="#61b872"/>
  <path fill="#afb6bb" d="M31.79 11.71q0-.29-.06-.56a1 1 0 0 0-.21-.47h-2.48l-.25.03q-.13 0-.25-.03h-2.49a1 1 0 0 0-.2.4 3 3 0 0 0 2.4 3.59 3 3 0 0 0 3.54-2.96"/>
  <path fill="#afb6bb" d="M27.29 27.92H24v-3.29a.7.7 0 0 0-.71-.7h-2.57a.7.7 0 0 0-.72.7v3.3h-3.28a.7.7 0 0 0-.72.7v2.58c0 .4.32.71.72.71H20v3.29c0 .4.32.71.71.71h2.57c.4 0 .72-.32.72-.71v-3.29h3.28c.4 0 .72-.32.72-.71v-2.58a.7.7 0 0 0-.71-.7"/>
</svg>
