<svg xmlns="http://www.w3.org/2000/svg" viewBox="0 0 256.4 291.5">
  <path fill="#d4b830" d="M23.79 262.02-.01.01l256.4.1-23.6 261.7-104.8 29.6zm189.7-14.3 19.9-224.4h-105l.8 247.5zm-94.9-191.5h-25.5l-.3 134.3-49.5-13.5.1 30.7 75.2 20.3z"/>
  <path fill="#ebebeb" fill-opacity=".92" d="m43.39 207.72-.1-30.7s31.6 8.9 49.5 13.5l.3-134.2h25.5v171.7z" opacity=".99"/>
  <path fill="#fdd83c" d="M128.39 23.21h105l-19.9 224.4-85.1 23.1zm79.7 186.8 6.9-83.9-51 5.7v-44.8l54.4-.2 2.2-30.6-82.1.4 1.1 111.4 49.6-8.5-.7 24.8-50 13.3.5 30.4z"/>
</svg>
