<svg xmlns="http://www.w3.org/2000/svg" data-name="Layer 1" viewBox="0 0 1000 1000">
  <path fill="#ea4335" d="M952.41 500q0-43.18-29.82-73c-29.82-29.82-44.21-29.82-73-29.82V232.67q0-33.93-24.16-58.09t-58.09-24.16H602.83V285.1h112.09v317.73H849.6q43.18 0 73-29.81 29.82-29.82 29.82-73Z"/>
  <path fill="#4285f4" d="M500 47.59q-43.18 0-73 29.82t-29.82 73H232.67q-33.93 0-58.09 24.16t-24.16 58.09v52.42h452.41V150.4q0-43.18-29.82-73t-73-29.82Z"/>
  <path fill="#34a853" d="M385.58 714.91H285.09c13.55-7.89 26.5-22.09 38.75-32.47 54.58-46.24 84.64-111.03 84.64-182.45s-30.06-136.2-84.64-182.45c-12.25-10.38-25.2-24.58-38.75-32.47H150.41v103.87q49.35 0 86.37 31.36t37.02 79.69c0 48.33-12.34 58.78-37.02 79.69q-37.02 31.36-86.37 31.36v156.29q0 33.93 24.16 58.09t58.09 24.16h152.91z"/>
  <path fill="#fbbc04" d="M714.91 714.91H385.58v134.68h381.75q33.94 0 58.09-24.16t24.16-58.09V602.83H714.9v112.09Z"/>
</svg>
