
    <svg width="812" height="434" viewBox="0 0 812 434"
    xmlns="http://www.w3.org/2000/svg">
        <defs>
                <filter id="card" x="0" y="0" width="812" height="434" filterUnits="userSpaceOnUse">
                    <feOffset dy="3" input="SourceAlpha"/>
                    <feGaussianBlur stdDeviation="5" result="blur"/>
                    <feFlood flood-opacity="0.161"/>
                    <feComposite operator="in" in2="blur"/>
                    <feComposite in="SourceGraphic"/>
                </filter>
            </defs>
            <g id="card" transform="matrix(1, 0, 0, 1, 0, 0)" filter="url(#card)">
                <rect id="card" data-name="card" width="782" height="404" rx="30" transform="translate(15 12)" fill="#18191A"/>
            </g>
        <g id="header-text" transform="translate(60 60)">
            <text id="skills" fill="#E4E6EB" transform="translate(0 44)" font-size="42" font-family="Roboto-Medium, Roboto, sans-serif" font-weight="500">
                <tspan x="0" y="0">Skills</tspan>
            </text>
            <text style="display:block" id="languages" transform="translate(0 90)" fill="#bfbfbf" font-size="24" font-family="Roboto-Regular, Roboto, sans-serif">
                <tspan x="0" y="0">Languages</tspan>
            </text>
            <text style="display:none" id="frameworks" transform="translate(0 289)" fill="#bfbfbf" font-size="24" font-family="Roboto-Regular, Roboto, sans-serif">
                <tspan x="0" y="0">Frameworks</tspan>
            </text>
            <text style="display:none" id="libraries" transform="translate(0 289)" fill="#bfbfbf" font-size="24" font-family="Roboto-Regular, Roboto, sans-serif">
                <tspan x="0" y="0">Libraries</tspan>
            </text>
            <text style="display:none" id="tools" transform="translate(0 289)" fill="#bfbfbf" font-size="24" font-family="Roboto-Regular, Roboto, sans-serif">
                <tspan x="0" y="0">Tools</tspan>
            </text>
            <text style="display:none" id="software" transform="translate(0 289)" fill="#bfbfbf" font-size="24" font-family="Roboto-Regular, Roboto, sans-serif">
                <tspan x="0" y="0">Software</tspan>
            </text>
        </g>
        <g style="display:block" id="boxes" transform="translate(60 190)">
            <defs>
                <linearGradient id="linear-gradient1" x1="0.085" y1="0.941" x2="0.939" y2="0.123" gradientUnits="objectBoundingBox">
                    <stop offset="0" stop-color="#FFE693"/>
                    <stop offset="1" stop-color="#E4A125"/>
                </linearGradient>
            </defs>
            <rect id="gradient-box1" transform="translate(0 0)" data-name="gradient-box1" width="80" height="80" rx="20" fill="url(#linear-gradient1)"/>
<g transform="translate(22 22)"><svg xmlns="http://www.w3.org/2000/svg" width="36" height="36" viewBox="0 0 36 36">
        <path id="javascript-logo" data-name="javascript-logo" fill="#FFFFFF" d="M0,0H36V36H0ZM33.051,27.414c-.263-1.642-1.332-3.023-4.5-4.309-1.1-.517-2.331-.878-2.7-1.71a1.771,1.771,0,0,1-.069-1.058,1.719,1.719,0,0,1,2.273-.99,2.44,2.44,0,0,1,1.464,1.35c1.551-1.014,1.551-1.014,2.632-1.687a6.191,6.191,0,0,0-.879-1.17,5.038,5.038,0,0,0-4.251-1.551l-1.058.133A4.835,4.835,0,0,0,23.4,17.929a4.706,4.706,0,0,0,.854,6.706c2.048,1.53,5.042,1.866,5.424,3.307.36,1.755-1.305,2.318-2.949,2.115a3.949,3.949,0,0,1-2.632-2L21.35,29.631a6.066,6.066,0,0,0,1.215,1.663c2.61,2.634,9.135,2.5,10.306-1.506a5.077,5.077,0,0,0,.111-2.475l.069.1ZM19.576,16.546H16.2c0,2.907-.014,5.8-.014,8.708,0,1.848.094,3.545-.207,4.066-.495,1.034-1.77.9-2.349.72a2.894,2.894,0,0,1-1.245-1.282,1.287,1.287,0,0,0-.191-.294L9.462,30.151a5.306,5.306,0,0,0,1.986,2.275,6.6,6.6,0,0,0,4.81.607,4.213,4.213,0,0,0,2.716-2.117c.765-1.4.6-3.1.6-5.019.018-3.081,0-6.163,0-9.269l.006-.084Z"/>
        </svg></g><g id="header-text" transform="translate(2.173913043478261 60)">
                    <text id="languages" fill="#E4A125" transform="translate(0 44)" font-size="16" font-family="Roboto-Light, Roboto, sans-serif" font-weight="300">
                        <tspan x="0" y="0">JavaScript</tspan>
                    </text>
                </g><defs>
                <linearGradient id="linear-gradient11" x1="0.085" y1="0.941" x2="0.939" y2="0.123" gradientUnits="objectBoundingBox">
                    <stop offset="0" stop-color="#9ECFFA"/>
                    <stop offset="1" stop-color="#337AB4"/>
                </linearGradient>
            </defs>
            <rect id="gradient-box11" transform="translate(102 0)" data-name="gradient-box11" width="80" height="80" rx="20" fill="url(#linear-gradient11)"/>
<g transform="translate(124 22)"><svg xmlns="http://www.w3.org/2000/svg" width="36" height="36" viewBox="0 0 36 36">
        <g id="python-logo" data-name="python-logo" transform="translate(-4.5 -4.5)">
          <path id="path1" data-name="Path 7" fill="#FFFFFF" d="M16.66,21.882a6.135,6.135,0,0,1,1.088-.1h9.459a4.52,4.52,0,0,0,1.212-.165,4.225,4.225,0,0,0,3.132-4.1V9.324c0-2.332-1.987-4.084-4.348-4.472A35.547,35.547,0,0,0,22.029,4.5a25.088,25.088,0,0,0-4.159.352c-3.682.641-4.353,1.989-4.353,4.472v2.69h9.017v1.5H10.589c-3.347,0-6.062,4-6.088,8.946,0,.024,0,.047,0,.071a13.082,13.082,0,0,0,.252,2.574c.748,3.726,3.078,6.443,5.836,6.443h1.426V27.237A5.553,5.553,0,0,1,16.66,21.882Zm.958-11.465a1.64,1.64,0,1,1,1.634-1.635A1.634,1.634,0,0,1,17.618,10.418Z"/>
          <path id="path2" data-name="Path 8" fill="#FFFFFF" d="M37.921,17.125c-.861-3.431-3.092-5.875-5.708-5.875H30.787v3.82a5.709,5.709,0,0,1-4.648,5.888,5.067,5.067,0,0,1-.78.061H15.6a4.829,4.829,0,0,0-1.226.157,4.032,4.032,0,0,0-3.128,3.9v8.193c0,2.332,2.346,3.7,4.648,4.373a15.93,15.93,0,0,0,9.052,0c2.189-.626,4.335-1.89,4.335-4.373V30.787H20.267v-1.5H32.213c2.371,0,4.425-2.007,5.43-4.936a12.615,12.615,0,0,0,.658-4.081A12.93,12.93,0,0,0,37.921,17.125ZM25.139,32.179A1.64,1.64,0,1,1,23.5,33.814,1.634,1.634,0,0,1,25.139,32.179Z" transform="translate(2.198 2.198)"/>
        </g>
        </svg></g><g id="header-text" transform="translate(117.21739130434783 60)">
                    <text id="languages" fill="#337AB4" transform="translate(0 44)" font-size="16" font-family="Roboto-Light, Roboto, sans-serif" font-weight="300">
                        <tspan x="0" y="0">Python</tspan>
                    </text>
                </g><defs>
                <linearGradient id="linear-gradient21" x1="0.085" y1="0.941" x2="0.939" y2="0.123" gradientUnits="objectBoundingBox">
                    <stop offset="0" stop-color="#A9EEFF"/>
                    <stop offset="1" stop-color="#00ACD2"/>
                </linearGradient>
            </defs>
            <rect id="gradient-box21" transform="translate(204 0)" data-name="gradient-box21" width="80" height="80" rx="20" fill="url(#linear-gradient21)"/>
<g transform="translate(226 24.249000000000002)"><svg xmlns="http://www.w3.org/2000/svg" width="36" height="31.502" viewBox="0 0 36 31.502">
        <path id="react-logo" data-name="react-logo" d="M29.4,12.459q-.57-.19-1.139-.359c.063-.26.12-.52.176-.78.865-4.191.3-7.559-1.624-8.67-1.849-1.062-4.866.042-7.917,2.7-.3.26-.6.534-.879.809-.19-.183-.387-.366-.584-.541-3.2-2.841-6.405-4.036-8.325-2.918C7.27,3.769,6.722,6.94,7.5,10.905c.077.394.162.78.26,1.174-.45.127-.893.267-1.308.415C2.693,13.8,0,15.848,0,17.972c0,2.194,2.869,4.395,6.771,5.73.316.105.633.211.956.3-.105.422-.2.837-.281,1.266-.738,3.9-.162,7,1.68,8.058,1.9,1.1,5.091-.028,8.2-2.749.246-.218.492-.443.738-.682.309.3.633.591.956.872C22.029,33.356,25,34.4,26.838,33.342c1.9-1.1,2.517-4.423,1.716-8.473q-.095-.464-.211-.949c.225-.063.443-.134.661-.2,4.057-1.343,7-3.516,7-5.745,0-2.13-2.77-4.2-6.6-5.512ZM19.891,6.49c2.616-2.278,5.055-3.171,6.166-2.531,1.188.682,1.645,3.438.9,7.059-.049.239-.1.471-.162.7a35.995,35.995,0,0,0-4.732-.745,35.525,35.525,0,0,0-3-3.734c.274-.26.541-.506.823-.752ZM11.756,21.621c.359.612.724,1.223,1.111,1.821A31.839,31.839,0,0,1,9.6,22.915a32.846,32.846,0,0,1,1.146-3.129c.323.619.654,1.23,1.005,1.835Zm-2.13-8.459c1.012-.225,2.088-.408,3.206-.548-.373.584-.738,1.181-1.083,1.786s-.682,1.209-1,1.828c-.443-1.048-.816-2.074-1.125-3.066Zm1.927,4.845c.464-.97.97-1.92,1.5-2.855s1.111-1.842,1.716-2.735c1.055-.077,2.13-.12,3.227-.12s2.18.042,3.227.12q.9,1.329,1.709,2.721t1.526,2.841q-.707,1.455-1.519,2.869c-.534.935-1.1,1.842-1.7,2.742-1.048.077-2.138.112-3.241.112s-2.173-.035-3.206-.1q-.918-1.339-1.73-2.742c-.541-.935-1.041-1.884-1.512-2.855Zm12.7,3.6c.359-.619.7-1.245,1.027-1.877a32.64,32.64,0,0,1,1.188,3.115,30.884,30.884,0,0,1-3.3.563C23.541,22.816,23.9,22.212,24.251,21.607Zm1.013-5.379c-.33-.619-.668-1.238-1.02-1.842s-.7-1.188-1.076-1.772a32.357,32.357,0,0,1,3.227.563,31.117,31.117,0,0,1-1.132,3.052Zm-7.249-7.91A30.876,30.876,0,0,1,20.1,10.835c-1.392-.063-2.791-.063-4.184,0C16.6,9.928,17.311,9.084,18.014,8.318ZM9.858,4.008c1.181-.689,3.8.3,6.567,2.742.176.155.352.323.534.492a35.723,35.723,0,0,0-3.016,3.734,37.064,37.064,0,0,0-4.725.731c-.091-.359-.169-.724-.246-1.09-.661-3.4-.225-5.97.886-6.609ZM8.135,22.542c-.3-.084-.584-.176-.872-.274a14.341,14.341,0,0,1-4.43-2.194,3.155,3.155,0,0,1-1.322-2.1c0-1.287,2.222-2.932,5.428-4.05.4-.141.809-.267,1.216-.387a37.388,37.388,0,0,0,1.723,4.472,38.434,38.434,0,0,0-1.744,4.535Zm8.2,6.891a12.869,12.869,0,0,1-3.966,2.482,3.112,3.112,0,0,1-2.482.091c-1.118-.647-1.582-3.129-.949-6.469.077-.394.162-.788.26-1.174a35.175,35.175,0,0,0,4.774.689,37.106,37.106,0,0,0,3.037,3.755C16.784,29.025,16.559,29.236,16.334,29.433Zm1.723-1.709c-.717-.773-1.434-1.631-2.13-2.552.675.028,1.371.042,2.074.042.724,0,1.434-.014,2.138-.049a30.322,30.322,0,0,1-2.081,2.559Zm9.19,2.109a3.125,3.125,0,0,1-1.16,2.2c-1.118.647-3.5-.2-6.075-2.4-.3-.253-.591-.527-.893-.809a34.783,34.783,0,0,0,2.967-3.769,34.662,34.662,0,0,0,4.8-.738c.07.288.134.577.19.858a12.817,12.817,0,0,1,.176,4.662Zm1.28-7.559c-.2.063-.394.127-.6.183a35.719,35.719,0,0,0-1.793-4.486,35.54,35.54,0,0,0,1.723-4.423c.366.105.717.218,1.055.33,3.277,1.125,5.576,2.8,5.576,4.078,0,1.378-2.454,3.157-5.962,4.317ZM18,21.22A3.22,3.22,0,1,0,14.78,18,3.22,3.22,0,0,0,18,21.22Z" transform="translate(0 -2.251)" fill="#fff"/>
        </svg>
        </g><g id="header-text" transform="translate(222.47826086956522 60)">
                    <text id="languages" fill="#00ACD2" transform="translate(0 44)" font-size="16" font-family="Roboto-Light, Roboto, sans-serif" font-weight="300">
                        <tspan x="0" y="0">React</tspan>
                    </text>
                </g><defs>
                <linearGradient id="linear-gradient31" x1="0.085" y1="0.941" x2="0.939" y2="0.123" gradientUnits="objectBoundingBox">
                    <stop offset="0" stop-color="#FDBAA2"/>
                    <stop offset="1" stop-color="#F1652A"/>
                </linearGradient>
            </defs>
            <rect id="gradient-box31" transform="translate(306 0)" data-name="gradient-box31" width="80" height="80" rx="20" fill="url(#linear-gradient31)"/>
<g transform="translate(330.57 22)"><svg xmlns="http://www.w3.org/2000/svg" width="30.857" height="36" viewBox="0 0 30.857 36">
        <path id="html5-logo" data-name="html5-logo" fill="#FFFFFF" d="M4.5,2.25l2.807,32.4,12.6,3.6,12.636-3.6,2.811-32.4ZM29.25,12.857H14.464l.321,4.1H28.928L27.843,29.12l-7.915,2.258L12,29.13,11.455,22.9h3.878l.275,3.157,4.321,1.188,4.293-1.2.448-5.155H11.249L10.239,8.872H29.588Z" transform="translate(-4.5 -2.25)"/>
        </svg></g><g id="header-text" transform="translate(326.7391304347826 60)">
                    <text id="languages" fill="#F1652A" transform="translate(0 44)" font-size="16" font-family="Roboto-Light, Roboto, sans-serif" font-weight="300">
                        <tspan x="0" y="0">HTML</tspan>
                    </text>
                </g><defs>
                <linearGradient id="linear-gradient41" x1="0.085" y1="0.941" x2="0.939" y2="0.123" gradientUnits="objectBoundingBox">
                    <stop offset="0" stop-color="#A7C1FD"/>
                    <stop offset="1" stop-color="#2865F0"/>
                </linearGradient>
            </defs>
            <rect id="gradient-box41" transform="translate(408 0)" data-name="gradient-box41" width="80" height="80" rx="20" fill="url(#linear-gradient41)"/>
<g transform="translate(432.57 22)"><svg xmlns="http://www.w3.org/2000/svg" width="30.857" height="36" viewBox="0 0 30.857 36">
        <g id="css3-logo" data-name="css3-logo" transform="translate(19.125 4.5)">
          <path id="path1" data-name="Path 3" fill="#FFFFFF" d="M-5.605,17.12Z" transform="translate(1.931 3.089)"/>
          <path id="path2" data-name="Path 4" fill="#FFFFFF" d="M-19.125-4.5l2.808,32.4,12.6,3.6L8.922,27.9l2.81-32.4ZM4.233,22.411l-7.924,2.26L-11.6,22.4l-.542-6.25h3.877l.276,3.179,4.306,1.218.011.022h0l4.3-1.193.451-5.155H-7.955l-.321-4.018H1.418l.353-4.1H-13.018l-.321-3.937H5.993Z" transform="translate(0 0)"/>
        </g>
        </svg></g><g id="header-text" transform="translate(433 60)">
                    <text id="languages" fill="#2865F0" transform="translate(0 44)" font-size="16" font-family="Roboto-Light, Roboto, sans-serif" font-weight="300">
                        <tspan x="0" y="0">CSS</tspan>
                    </text>
                </g><defs>
                <linearGradient id="linear-gradient51" x1="0.085" y1="0.941" x2="0.939" y2="0.123" gradientUnits="objectBoundingBox">
                    <stop offset="0" stop-color="#E1BEFF"/>
                    <stop offset="1" stop-color="#892EE5"/>
                </linearGradient>
            </defs>
            <rect id="gradient-box51" transform="translate(510 0)" data-name="gradient-box51" width="80" height="80" rx="20" fill="url(#linear-gradient51)"/>
<g transform="translate(532 22)"><svg xmlns="http://www.w3.org/2000/svg" width="36" height="36" viewBox="0 0 36 36">
        <path id="bootstrap-logo" data-name="bootstrap-logo" d="M23.488,24.744a3.2,3.2,0,0,1-3.529,3.329h-6.5V21.509h6.5c3.42,0,3.529,2.563,3.529,3.235Zm-4.03-5.877c.054,0,3.089.08,3.089-2.918,0-1.247-.282-2.882-3.089-2.882h-6v5.8ZM36,8.25v24a6.018,6.018,0,0,1-6,6H6a6.018,6.018,0,0,1-6-6v-24a6.018,6.018,0,0,1,6-6H30A6.018,6.018,0,0,1,36,8.25ZM27.165,25.221c0-1.733-.534-4.684-3.942-5.412V19.75a4.6,4.6,0,0,0,3-4.471c0-.562.161-5.206-6.236-5.206H9.783v21c10.3,0,11.24.135,13.146-.459a5.4,5.4,0,0,0,4.236-5.394Z" transform="translate(0 -2.25)" fill="#fff"/>
        </svg>
        </g><g id="header-text" transform="translate(515.4347826086956 60)">
                    <text id="languages" fill="#892EE5" transform="translate(0 44)" font-size="16" font-family="Roboto-Light, Roboto, sans-serif" font-weight="300">
                        <tspan x="0" y="0">Bootstrap</tspan>
                    </text>
                </g><defs>
                <linearGradient id="linear-gradient61" x1="0.085" y1="0.941" x2="0.939" y2="0.123" gradientUnits="objectBoundingBox">
                    <stop offset="0" stop-color="#3AD5C5"/>
                    <stop offset="1" stop-color="#00ABD0"/>
                </linearGradient>
            </defs>
            <rect id="gradient-box61" transform="translate(612 0)" data-name="gradient-box61" width="80" height="80" rx="20" fill="url(#linear-gradient61)"/>
<g transform="translate(630.723 27.234)"><svg xmlns="http://www.w3.org/2000/svg" width="42.554" height="25.532" viewBox="0 0 42.554 25.532">
        <path id="tailwind-logo" data-name="tailwind-logo" d="M21.277,0Q12.766,0,10.638,8.511q3.192-4.255,7.447-3.192c1.619.4,2.776,1.579,4.056,2.879,2.086,2.117,4.5,4.568,9.774,4.568q8.511,0,10.638-8.511-3.192,4.255-7.447,3.192c-1.619-.4-2.776-1.579-4.056-2.879C28.965,2.451,26.55,0,21.277,0ZM10.638,12.766Q2.128,12.766,0,21.277q3.192-4.255,7.447-3.192c1.619.4,2.776,1.579,4.056,2.879,2.086,2.117,4.5,4.568,9.774,4.568q8.511,0,10.638-8.511-3.192,4.255-7.447,3.192c-1.619-.4-2.776-1.579-4.056-2.879C18.326,15.217,15.912,12.766,10.638,12.766Z" fill="#fff"/>
        </svg>
        </g><g id="header-text" transform="translate(610.9130434782609 60)">
                    <text id="languages" fill="#00ABD0" transform="translate(0 44)" font-size="16" font-family="Roboto-Light, Roboto, sans-serif" font-weight="300">
                        <tspan x="0" y="0">TailwindCSS</tspan>
                    </text>
                </g>
        </g>
        <g style="display:none" id="boxes" transform="translate(60 389)">
            <defs>
                <linearGradient id="linear-gradient2" x1="0.085" y1="0.941" x2="0.939" y2="0.123" gradientUnits="objectBoundingBox">
                    <stop offset="0" stop-color="#FFFFFF"/>
                    <stop offset="1" stop-color="#808080"/>
                </linearGradient>
            </defs>
            <rect id="gradient-box2" transform="translate(0 0)" data-name="gradient-box2" width="80" height="80" rx="20" fill="url(#linear-gradient2)"/>
<g transform="translate(40.5 40.5)">undefined</g><g id="header-text" transform="translate(34.78260869565218 60)">
                    <text id="languages" fill="#808080" transform="translate(0 44)" font-size="16" font-family="Roboto-Light, Roboto, sans-serif" font-weight="300">
                        <tspan x="0" y="0"></tspan>
                    </text>
                </g>
        </g>
        <g style="display:none" id="boxes" transform="translate(60 389)">
            <defs>
                <linearGradient id="linear-gradient3" x1="0.085" y1="0.941" x2="0.939" y2="0.123" gradientUnits="objectBoundingBox">
                    <stop offset="0" stop-color="#FFFFFF"/>
                    <stop offset="1" stop-color="#808080"/>
                </linearGradient>
            </defs>
            <rect id="gradient-box3" transform="translate(0 0)" data-name="gradient-box3" width="80" height="80" rx="20" fill="url(#linear-gradient3)"/>
<g transform="translate(40.5 40.5)">undefined</g><g id="header-text" transform="translate(34.78260869565218 60)">
                    <text id="languages" fill="#808080" transform="translate(0 44)" font-size="16" font-family="Roboto-Light, Roboto, sans-serif" font-weight="300">
                        <tspan x="0" y="0"></tspan>
                    </text>
                </g>
        </g>
        <g style="display:none" id="boxes" transform="translate(60 389)">
            <defs>
                <linearGradient id="linear-gradient4" x1="0.085" y1="0.941" x2="0.939" y2="0.123" gradientUnits="objectBoundingBox">
                    <stop offset="0" stop-color="#FFFFFF"/>
                    <stop offset="1" stop-color="#808080"/>
                </linearGradient>
            </defs>
            <rect id="gradient-box4" transform="translate(0 0)" data-name="gradient-box4" width="80" height="80" rx="20" fill="url(#linear-gradient4)"/>
<g transform="translate(40.5 40.5)">undefined</g><g id="header-text" transform="translate(34.78260869565218 60)">
                    <text id="languages" fill="#808080" transform="translate(0 44)" font-size="16" font-family="Roboto-Light, Roboto, sans-serif" font-weight="300">
                        <tspan x="0" y="0"></tspan>
                    </text>
                </g>
        </g>
        <g style="display:none" id="boxes" transform="translate(60 389)">
            <defs>
                <linearGradient id="linear-gradient5" x1="0.085" y1="0.941" x2="0.939" y2="0.123" gradientUnits="objectBoundingBox">
                    <stop offset="0" stop-color="#FFFFFF"/>
                    <stop offset="1" stop-color="#808080"/>
                </linearGradient>
            </defs>
            <rect id="gradient-box5" transform="translate(0 0)" data-name="gradient-box5" width="80" height="80" rx="20" fill="url(#linear-gradient5)"/>
<g transform="translate(40.5 40.5)">undefined</g><g id="header-text" transform="translate(34.78260869565218 60)">
                    <text id="languages" fill="#808080" transform="translate(0 44)" font-size="16" font-family="Roboto-Light, Roboto, sans-serif" font-weight="300">
                        <tspan x="0" y="0"></tspan>
                    </text>
                </g>
        </g>
        
    </svg>
  